<?xml version="1.0" standalone="no"?>
<!DOCTYPE svg PUBLIC "-//W3C//DTD SVG 20010904//EN"
 "http://www.w3.org/TR/2001/REC-SVG-20010904/DTD/svg10.dtd">
<svg version="1.0" xmlns="http://www.w3.org/2000/svg"
 width="500.000000pt" height="500.000000pt" viewBox="0 0 500.000000 500.000000"
 preserveAspectRatio="xMidYMid meet">

<g transform="translate(0.000000,500.000000) scale(0.100000,-0.100000)"
fill="#000000" stroke="none">
<path d="M2030 4384 c-25 -7 -64 -19 -87 -24 -40 -10 -43 -13 -43 -43 0 -18
17 -69 39 -113 25 -53 52 -137 80 -251 43 -180 47 -208 31 -218 -19 -12 -10
-45 15 -57 14 -6 25 -18 25 -27 0 -9 3 -25 6 -37 5 -19 -1 -21 -90 -32 -156
-19 -158 -19 -177 31 -9 23 -46 109 -83 190 -58 132 -68 164 -88 283 -12 73
-25 139 -29 145 -5 9 -25 6 -76 -13 -111 -42 -187 -76 -191 -86 -4 -12 70
-123 128 -192 44 -53 90 -143 160 -315 18 -44 37 -85 41 -91 5 -6 -11 -29 -41
-59 -74 -73 -112 -171 -114 -290 -1 -82 3 -103 48 -240 27 -82 63 -194 81
-248 l32 -98 -189 -212 c-215 -240 -247 -293 -256 -407 -8 -120 30 -228 111
-311 53 -54 94 -74 277 -140 74 -26 205 -73 290 -104 85 -31 191 -70 235 -85
44 -16 197 -71 340 -123 199 -73 264 -93 278 -85 10 5 114 103 230 216 117
114 282 275 367 357 85 83 224 218 310 301 85 83 188 183 229 221 86 81 90
103 18 103 -31 0 -49 6 -61 19 -25 28 -30 88 -12 140 16 46 14 61 -8 61 -12 0
-43 -27 -311 -275 -134 -125 -549 -505 -645 -592 l-46 -41 -89 33 c-50 19
-173 63 -275 100 -102 36 -252 91 -335 121 -82 30 -199 72 -260 94 -60 22
-166 60 -234 85 -69 25 -129 45 -133 45 -16 0 -8 -28 10 -33 42 -13 992 -357
1127 -409 43 -16 106 -38 139 -49 l61 -18 30 27 c16 15 64 58 105 97 107 99
282 260 360 330 79 71 393 357 400 365 3 3 20 18 37 34 l32 29 0 -54 c-1 -88
21 -125 82 -138 31 -6 28 -10 -307 -336 -311 -303 -452 -440 -730 -708 -55
-53 -105 -97 -111 -97 -10 0 -167 55 -513 182 -74 27 -202 73 -285 103 -82 29
-199 71 -260 94 -60 22 -146 52 -189 68 -65 23 -90 38 -136 84 -47 46 -60 67
-80 129 -53 165 -28 252 121 421 204 231 282 319 285 319 2 0 20 -30 40 -67
103 -184 197 -287 349 -378 163 -98 288 -121 475 -90 105 18 147 34 256 99 46
28 70 36 109 36 166 1 404 114 464 221 48 84 23 219 -63 339 -22 32 -69 98
-103 146 -60 83 -63 91 -63 144 0 104 72 168 117 103 24 -34 43 -87 43 -121 0
-13 -14 -52 -30 -84 -17 -33 -29 -62 -27 -65 11 -10 75 27 106 62 54 62 74
118 75 216 1 80 -1 88 -28 123 -16 22 -49 47 -74 58 -95 42 -277 2 -344 -75
-38 -44 -62 -127 -54 -191 9 -79 65 -181 159 -288 46 -52 92 -112 102 -134 59
-125 -40 -272 -272 -403 -40 -23 -75 -41 -78 -41 -3 0 -1 10 6 21 6 12 12 43
13 69 1 54 -14 77 -76 116 -33 21 -36 27 -31 56 8 54 -30 147 -78 190 -59 54
-152 76 -203 49 -48 -26 -58 -70 -58 -256 0 -210 -5 -245 -39 -264 -47 -26
-109 8 -79 44 10 13 14 12 29 -6 13 -16 23 -20 39 -15 29 10 30 52 2 61 -11 3
-20 10 -20 14 0 41 -35 247 -55 325 -42 165 -34 201 78 368 69 102 87 119 87
78 0 -11 5 -30 11 -44 10 -22 17 -25 64 -23 58 2 85 -13 85 -48 0 -12 7 -28
15 -35 41 -34 -3 -64 -82 -58 -59 5 -76 -4 -42 -23 34 -18 115 -6 144 21 30
28 32 51 6 74 -11 10 -21 30 -23 45 -2 18 -13 31 -34 41 -28 13 -31 19 -27 46
6 36 -11 74 -32 74 -22 0 -38 -38 -31 -75 11 -57 -12 -48 -31 12 -10 31 -23
58 -29 60 -18 6 -165 -213 -190 -282 -19 -53 -21 -70 -13 -130 4 -39 15 -97
24 -130 23 -90 45 -215 45 -261 0 -33 -5 -45 -25 -58 -29 -19 -34 -66 -9 -90
19 -20 93 -21 118 -3 27 19 35 83 36 264 0 127 4 172 16 204 18 44 49 62 90
54 13 -3 35 -7 49 -10 36 -8 95 -64 116 -110 10 -22 19 -58 19 -81 l0 -41 -49
-6 c-99 -12 -164 -68 -178 -152 -3 -20 -14 -40 -23 -45 -20 -11 -33 -51 -24
-75 9 -22 57 -45 94 -45 82 0 144 66 176 188 9 37 21 71 25 76 4 5 23 -1 42
-13 55 -34 60 -66 23 -139 -24 -48 -82 -92 -166 -125 -104 -42 -322 -46 -420
-7 -65 26 -214 115 -272 164 -119 100 -248 322 -313 541 -13 44 -42 140 -65
214 -38 121 -42 141 -38 210 7 100 46 199 101 252 23 21 44 36 48 31 11 -12
89 -195 85 -200 -7 -6 -59 30 -99 70 -44 43 -47 45 -47 20 0 -23 51 -71 110
-105 49 -28 162 -62 255 -77 128 -20 526 -9 685 19 205 37 310 105 310 202 0
45 -51 107 -108 133 -37 17 -40 20 -31 45 8 21 19 29 52 37 33 7 43 14 45 32
2 13 -4 32 -14 43 -16 18 -15 23 20 103 30 67 46 90 76 110 65 43 91 114 100
272 4 73 10 137 14 142 16 27 -19 20 -53 -10 -21 -18 -63 -51 -93 -74 -72 -54
-115 -120 -124 -190 -3 -30 -4 -64 0 -76 3 -15 -9 -55 -37 -116 -36 -79 -46
-93 -70 -99 -34 -7 -44 -27 -30 -62 7 -20 5 -36 -7 -66 l-17 -40 -94 7 c-52 3
-153 7 -225 7 l-131 1 -13 44 c-7 26 -9 61 -5 85 6 34 3 44 -13 59 -33 28
-104 339 -111 482 l-6 115 -30 2 c-16 1 -50 -5 -75 -13z m90 -79 c1 -33 1 -67
1 -76 -1 -18 -74 -55 -89 -45 -5 3 -13 22 -16 41 -9 45 -31 47 -23 3 3 -18 7
-39 9 -47 1 -7 -2 -15 -7 -17 -13 -5 -62 89 -71 134 -6 28 -4 32 22 37 24 5
94 24 149 40 18 5 24 -10 25 -70z m1003 -131 c-1 -103 -4 -122 -28 -170 -43
-88 -107 -105 -160 -42 -28 34 -29 38 -14 108 13 61 46 102 138 171 35 27 64
49 65 49 1 0 0 -52 -1 -116z m-1490 -71 c9 -60 20 -117 23 -128 4 -17 -4 -25
-41 -43 -25 -12 -51 -22 -58 -22 -14 0 -91 95 -134 165 l-30 51 54 21 54 22 9
-25 c15 -39 33 -30 25 14 -9 48 6 32 30 -33 34 -95 56 -89 27 7 -19 62 -17 77
13 78 6 0 19 -48 28 -107z m497 59 c0 -9 18 -90 41 -179 22 -90 37 -168 34
-173 -3 -6 -17 -10 -31 -10 -14 0 -39 -7 -55 -16 -17 -8 -32 -14 -34 -12 -9 8
-86 360 -81 366 11 10 111 49 119 45 4 -2 7 -12 7 -21z m838 -252 c23 0 21
-21 -13 -95 -29 -63 -39 -76 -53 -70 -9 4 -27 10 -40 13 -27 5 -25 16 25 115
32 65 35 68 52 53 10 -9 23 -16 29 -16z m-1266 -67 c20 -43 57 -127 83 -188
26 -60 65 -148 85 -195 85 -190 98 -225 90 -228 -5 -2 -35 4 -65 13 l-56 16
-39 82 c-21 45 -51 114 -68 152 -16 39 -60 139 -96 223 -36 84 -66 157 -66
161 0 11 60 40 81 41 10 0 29 -28 51 -77z m548 -76 c0 -32 -81 -77 -139 -77
-67 0 -65 40 3 71 49 22 136 26 136 6z m655 -56 c57 -38 53 -56 -12 -56 -54 1
-94 21 -117 58 -28 45 62 43 129 -2z m-653 -73 l13 -63 -60 -17 c-33 -9 -62
-15 -66 -12 -3 2 -9 21 -13 41 -3 21 -9 48 -12 61 -5 18 -2 22 17 23 13 0 40
6 59 13 19 8 38 14 42 15 3 0 12 -27 20 -61z m572 7 c42 -18 42 -23 0 -107
-24 -47 -24 -47 -51 -33 -16 8 -33 15 -40 15 -7 0 0 26 19 70 17 39 32 70 33
70 2 0 19 -7 39 -15z m-226 -72 c122 -7 143 -20 77 -47 -42 -18 -52 -39 -35
-70 11 -21 6 -36 -38 -128 l-50 -105 -87 -7 c-49 -3 -89 -5 -91 -4 -1 2 -13
57 -27 123 -14 67 -27 125 -28 130 -1 6 4 23 11 39 13 26 12 30 -8 46 -12 10
-22 21 -22 24 0 8 157 8 298 -1z m-482 -27 c3 -8 -2 -26 -11 -40 -22 -34 -16
-70 12 -74 15 -2 25 -12 29 -30 3 -15 15 -61 25 -104 10 -42 19 -79 19 -82 0
-8 -139 -6 -169 3 -19 5 -36 34 -87 151 -35 80 -63 150 -64 157 0 7 23 14 58
18 31 4 62 8 67 10 6 2 34 4 63 4 37 1 54 -3 58 -13z m183 -5 c24 -16 2 -48
-49 -70 -56 -24 -140 -29 -140 -8 0 47 144 106 189 78z m627 -42 c46 -32 54
-45 54 -96 0 -57 -56 -105 -161 -137 -81 -25 -109 -30 -109 -22 0 2 14 33 30
70 23 50 35 66 51 66 53 0 77 44 43 81 -14 16 -14 20 0 48 18 35 28 34 92 -10z
m-152 -22 c73 -41 72 -85 -2 -72 -60 11 -135 69 -115 89 14 14 80 4 117 -17z
m-451 -134 c15 -65 27 -121 27 -125 0 -5 -31 -8 -70 -8 -61 0 -70 2 -70 18 0
10 -9 52 -20 93 -26 97 -25 109 3 109 12 1 36 7 52 15 17 7 35 14 40 14 6 1
23 -52 38 -116z m425 41 c2 -1 -14 -36 -34 -77 l-38 -75 -45 -4 c-25 -3 -47
-4 -49 -3 -1 1 18 45 43 98 l45 97 38 -17 c20 -10 38 -18 40 -19z m587 -103
c72 -33 89 -62 93 -150 5 -90 -19 -159 -69 -207 l-29 -28 11 33 c18 51 5 145
-25 191 -60 91 -152 48 -171 -82 -10 -69 7 -109 107 -243 135 -180 172 -292
130 -388 -31 -71 -145 -149 -281 -192 -44 -15 -141 -35 -141 -30 0 1 32 24 71
50 135 90 229 211 229 293 0 79 -20 114 -154 269 -32 37 -74 101 -93 141 -32
65 -35 79 -31 141 5 91 39 144 118 180 96 43 173 51 235 22z m-764 -268 c-9
-15 -10 -12 -10 17 0 29 1 32 10 18 7 -12 7 -24 0 -35z m172 -641 c8 -11 -38
-146 -63 -186 -26 -43 -66 -66 -113 -66 -45 0 -71 20 -63 48 9 28 27 28 44 1
18 -28 76 -23 80 8 3 23 -30 53 -60 53 -12 0 -18 8 -18 23 0 38 38 87 83 107
43 19 102 26 110 12z m-148 -183 c12 -19 -5 -23 -22 -6 -16 16 -16 17 -1 17 9
0 20 -5 23 -11z"/>
<path d="M4520 2831 c-8 -5 -34 -12 -57 -16 -40 -6 -61 -25 -29 -25 8 0 16
-10 18 -22 4 -29 45 -50 70 -37 24 13 23 35 -4 53 l-21 15 26 12 c15 7 27 16
27 21 0 10 -11 10 -30 -1z m-14 -66 c18 -15 18 -15 -5 -13 -14 2 -26 9 -29 16
-5 17 10 15 34 -3z"/>
<path d="M465 2812 c-9 -9 6 -22 25 -22 11 0 20 -10 25 -27 21 -86 99 -82 125
6 8 27 6 31 -13 36 -32 6 -157 12 -162 7z m152 -37 c6 -18 -23 -55 -43 -55
-15 0 -44 38 -44 57 0 20 79 17 87 -2z"/>
<path d="M3410 2797 c0 -13 385 -207 410 -207 15 0 8 21 -11 32 -50 28 -382
188 -390 188 -5 0 -9 -6 -9 -13z"/>
<path d="M4418 2673 c-43 -2 -78 -8 -78 -13 0 -6 11 -10 24 -10 53 0 84 -11
79 -30 -6 -21 31 -50 65 -50 35 0 40 29 9 56 -34 29 -34 34 3 34 17 0 30 5 30
10 0 6 -12 9 -27 8 -16 -1 -63 -4 -105 -5z m83 -53 c10 -6 19 -15 19 -20 0
-14 -34 -12 -48 2 -26 26 -7 37 29 18z"/>
<path d="M463 2655 c-3 -9 2 -24 12 -35 17 -19 17 -20 -9 -29 -14 -6 -26 -16
-26 -22 0 -7 7 -8 18 -4 9 4 38 10 65 12 26 3 47 9 47 14 0 5 -4 9 -10 9 -5 0
-10 9 -10 19 0 42 -73 72 -87 36z m64 -20 c10 -27 -6 -30 -29 -7 l-22 22 22 0
c12 0 25 -7 29 -15z"/>
<path d="M4520 2521 c0 -6 -17 -11 -37 -13 -36 -3 -38 -5 -39 -40 -1 -32 2
-37 29 -42 44 -9 77 -7 77 4 0 6 -13 10 -28 10 -25 0 -62 25 -62 43 0 3 17 7
37 9 27 2 39 8 41 21 2 9 -1 17 -7 17 -6 0 -11 -4 -11 -9z"/>
<path d="M408 2513 c-66 -6 -62 -25 4 -22 48 3 51 1 55 -22 9 -61 93 -65 93
-4 0 12 5 26 12 33 9 9 5 12 -17 12 -17 0 -46 2 -65 4 -19 2 -56 1 -82 -1z
m120 -22 c20 -12 10 -46 -13 -46 -14 0 -21 8 -23 28 -3 28 10 35 36 18z"/>
<path d="M476 2364 c-9 -8 -16 -20 -16 -25 0 -17 20 -49 31 -49 6 0 6 8 -1 21
-7 11 -9 28 -5 37 5 13 10 9 25 -16 21 -34 54 -43 64 -16 7 19 -36 64 -63 64
-11 0 -27 -7 -35 -16z m78 -29 c3 -8 2 -15 -3 -15 -5 0 -14 7 -21 15 -10 12
-10 15 3 15 8 0 17 -7 21 -15z"/>
<path d="M4488 2373 c-32 -2 -58 -8 -58 -13 0 -6 5 -10 11 -10 6 0 8 -8 4 -19
-4 -13 1 -27 15 -41 41 -41 94 -3 55 40 -16 18 -15 19 11 22 15 2 29 9 32 16
2 6 0 11 -5 10 -4 -1 -34 -3 -65 -5z m12 -58 c7 -9 10 -18 7 -21 -10 -11 -37
5 -37 21 0 19 14 19 30 0z"/>
<path d="M575 2253 c-80 -14 -93 -18 -83 -28 6 -7 147 15 167 25 28 15 -7 16
-84 3z"/>
<path d="M4417 2222 c-3 -4 -8 -33 -11 -64 -4 -32 -12 -58 -19 -58 -29 0 13
-19 56 -25 54 -8 64 6 15 20 -18 6 -34 18 -36 28 -3 14 4 17 44 17 51 0 52 8
1 25 -17 5 -33 18 -35 28 -3 15 3 17 39 15 23 -2 43 2 45 7 4 11 -93 18 -99 7z"/>
<path d="M518 2169 c-24 -13 -23 -35 3 -53 l21 -14 -21 -14 c-11 -7 -21 -19
-21 -26 0 -10 5 -9 23 3 12 8 39 20 60 26 37 10 51 29 21 29 -8 0 -13 4 -10 9
16 25 -47 57 -76 40z m52 -35 c0 -17 -5 -17 -31 -3 -11 5 -17 14 -14 19 8 13
45 0 45 -16z"/>
<path d="M568 2024 c-60 -18 -62 -34 -5 -34 23 0 53 -7 65 -16 12 -8 22 -10
22 -5 0 6 -9 16 -20 23 -11 7 -20 16 -20 20 0 5 9 8 20 8 11 0 20 5 20 10 0
13 -25 12 -82 -6z"/>
<path d="M4372 2028 c-6 -6 -12 -18 -12 -25 0 -23 39 -53 70 -53 23 0 31 5 36
25 3 14 3 33 -2 42 -6 14 -9 11 -12 -14 -4 -44 -30 -44 -34 -1 -3 35 -25 47
-46 26z m35 -23 c8 -22 -6 -33 -17 -15 -13 20 -12 30 0 30 6 0 13 -7 17 -15z"/>
<path d="M697 1954 c-8 -8 1 -24 14 -24 5 0 9 7 9 15 0 15 -12 20 -23 9z"/>
<path d="M4236 1952 c-2 -4 16 -19 40 -32 38 -19 44 -27 40 -46 -8 -30 29 -76
58 -72 29 4 32 35 5 64 -26 27 -25 27 18 15 55 -16 46 6 -9 25 -29 9 -74 25
-100 35 -26 10 -49 15 -52 11z m134 -101 c12 -24 13 -31 1 -31 -15 0 -42 31
-36 41 10 15 24 10 35 -10z"/>
<path d="M600 1912 c-25 -11 -30 -17 -18 -19 9 -2 30 3 47 12 55 28 31 35 -29
7z"/>
<path d="M604 1835 c-10 -24 3 -45 27 -45 l22 0 -23 -25 c-33 -35 -19 -41 25
-11 20 14 45 28 56 31 18 6 17 9 -10 36 -33 32 -87 40 -97 14z m66 -19 c0 -9
-8 -12 -25 -8 -14 2 -25 8 -25 13 0 5 11 9 25 9 14 0 25 -6 25 -14z"/>
<path d="M4223 1639 c-3 -53 11 -79 41 -79 28 0 40 24 25 51 -9 18 -7 19 15
13 48 -12 48 8 -1 26 -26 9 -55 20 -63 24 -13 5 -16 -2 -17 -35z m46 -35 c10
-22 9 -25 -6 -22 -10 2 -19 13 -21 26 -5 30 12 28 27 -4z"/>
<path d="M798 1616 c-20 -12 -46 -30 -57 -40 -20 -18 -20 -20 -4 -47 19 -31
40 -40 28 -11 -15 35 -9 46 42 76 51 30 66 47 41 45 -7 0 -30 -11 -50 -23z"/>
<path d="M4170 1536 c0 -3 9 -21 21 -40 25 -43 9 -49 -35 -15 -15 12 -30 18
-34 14 -9 -9 34 -44 65 -51 29 -8 43 8 36 37 -4 14 0 19 16 19 11 0 21 5 21
10 0 6 -11 10 -24 10 -14 0 -28 5 -31 10 -6 10 -35 14 -35 6z"/>
<path d="M812 1474 c-31 -21 -28 -43 8 -51 30 -5 30 -6 14 -30 -25 -39 -9 -38
31 1 19 20 40 36 45 36 6 0 10 7 10 16 0 8 -4 13 -10 9 -5 -3 -18 3 -30 15
-24 24 -38 25 -68 4z m56 -21 c2 -8 -6 -13 -22 -13 -25 0 -33 10 -19 24 10 10
36 3 41 -11z"/>
<path d="M4069 1419 c-16 -31 3 -47 41 -32 16 6 31 9 34 6 9 -9 -6 -33 -20
-33 -8 0 -14 -4 -14 -10 0 -14 23 -13 38 2 7 7 12 23 12 36 0 23 -2 24 -42 18
-35 -6 -41 -5 -30 5 14 15 16 29 2 29 -5 0 -14 -9 -21 -21z"/>
<path d="M916 1363 c-26 -38 -33 -63 -18 -63 22 0 102 33 102 42 0 6 -7 7 -16
4 -9 -3 -27 -9 -41 -12 l-25 -7 17 33 c24 46 11 48 -19 3z"/>
<path d="M962 1268 c-22 -22 -14 -48 17 -54 27 -6 29 -8 19 -30 -6 -13 -8 -27
-3 -32 4 -4 10 -1 13 7 2 8 20 31 38 51 36 40 43 56 20 47 -8 -3 -20 1 -26 9
-15 17 -61 19 -78 2z m62 -17 c3 -5 -6 -12 -20 -15 -29 -8 -39 -3 -29 13 8 13
42 14 49 2z"/>
<path d="M3939 1256 c9 -10 8 -16 -4 -26 -21 -17 -19 -54 5 -75 27 -24 50 -13
50 25 0 27 2 30 19 20 24 -12 41 -13 41 -1 0 5 -13 14 -29 21 -16 6 -37 20
-47 31 -20 22 -54 28 -35 5z m31 -81 c0 -18 -1 -18 -16 -3 -10 10 -14 23 -10
34 6 16 8 16 16 4 6 -8 10 -24 10 -35z"/>
<path d="M1075 1160 c-21 -22 -34 -40 -29 -40 6 0 19 9 29 20 17 19 55 27 68
14 3 -4 -3 -19 -15 -34 -21 -28 -19 -60 3 -60 6 0 8 7 5 16 -3 9 3 27 14 41
26 33 25 41 -5 55 -13 6 -22 15 -19 19 14 23 -16 5 -51 -31z"/>
<path d="M1306 1093 c-24 -25 -40 -34 -43 -25 -6 15 -65 16 -81 0 -17 -17 -15
-48 4 -55 10 -3 30 -1 46 5 l28 10 -21 -29 c-19 -27 -20 -56 -1 -33 45 53 122
153 122 158 0 14 -17 4 -54 -31z m-56 -43 c0 -11 -48 -25 -56 -17 -4 3 -3 10
1 16 8 14 55 14 55 1z"/>
<path d="M3600 1081 c0 -6 9 -30 20 -51 l20 -40 -20 -20 c-23 -23 -24 -30 -8
-65 19 -42 52 -30 56 19 l3 40 24 -30 c13 -16 26 -26 30 -22 3 3 -21 44 -55
90 -74 98 -70 94 -70 79z m50 -151 c0 -16 -4 -30 -9 -30 -12 0 -24 37 -16 50
12 20 25 10 25 -20z"/>
<path d="M3742 1068 c-31 -31 4 -93 50 -86 35 5 37 50 2 77 -31 24 -36 25 -52
9z m58 -48 c0 -10 -4 -21 -9 -24 -13 -9 -44 32 -37 49 8 22 46 1 46 -25z"/>
<path d="M1300 960 c-11 -11 -20 -24 -20 -29 0 -17 26 -30 48 -24 20 5 21 3
16 -26 -8 -38 11 -42 21 -4 3 15 15 39 26 54 24 34 24 42 0 34 -11 -3 -22 -1
-26 5 -10 16 -43 12 -65 -10z m54 -9 c6 -10 -39 -32 -48 -24 -8 9 14 33 30 33
7 0 15 -4 18 -9z"/>
<path d="M3498 891 c-6 -10 -18 -17 -25 -14 -19 7 -16 -3 14 -54 25 -44 47
-47 24 -4 -13 24 -14 41 -2 60 7 11 15 7 38 -19 26 -29 30 -30 42 -16 11 14
11 16 -3 16 -8 0 -23 11 -32 25 -19 30 -39 32 -56 6z"/>
<path d="M3254 868 c19 -66 19 -86 -3 -97 -15 -8 -21 -21 -21 -45 0 -67 51
-70 65 -4 l7 31 15 -32 c9 -17 19 -31 24 -31 13 0 13 -2 -36 104 -41 90 -66
125 -51 74z m26 -127 c0 -17 -12 -41 -21 -41 -5 0 -9 11 -9 25 0 16 6 25 15
25 8 0 15 -4 15 -9z"/>
<path d="M1540 832 c0 -13 46 -35 62 -30 8 3 1 11 -19 21 -36 19 -43 20 -43 9z"/>
<path d="M3382 828 c-7 -7 -12 -26 -12 -43 0 -17 5 -36 12 -43 25 -25 78 -8
78 27 0 12 -3 11 -18 -2 -20 -18 -42 -22 -42 -8 0 5 7 14 15 21 22 18 20 60
-3 60 -10 0 -23 -5 -30 -12z m19 -41 c-8 -8 -11 -7 -11 4 0 20 13 34 18 19 3
-7 -1 -17 -7 -23z"/>
<path d="M1788 809 c-24 -14 -23 -54 3 -88 12 -16 18 -34 15 -40 -12 -18 -43
-12 -59 12 l-16 22 0 -22 c-1 -13 9 -29 24 -39 23 -15 27 -15 50 0 30 20 31
42 5 76 -28 36 -26 60 5 60 14 0 25 -4 25 -10 0 -5 5 -10 10 -10 21 0 9 31
-16 40 -30 12 -25 12 -46 -1z"/>
<path d="M3115 719 c-4 -6 -13 -8 -21 -5 -17 7 -17 -1 -2 -59 15 -55 31 -60
22 -7 -4 27 -2 41 9 50 12 10 18 7 35 -23 14 -23 26 -33 37 -29 18 7 20 24 3
24 -7 0 -21 14 -30 30 -17 30 -41 39 -53 19z"/>
<path d="M2855 699 c5 -14 2 -25 -6 -30 -10 -7 -11 -11 -3 -16 7 -5 17 -27 23
-51 13 -45 30 -59 59 -47 15 7 14 9 -8 14 -33 9 -52 78 -26 96 20 15 21 29 2
22 -9 -4 -17 2 -21 14 -4 10 -11 19 -16 19 -6 0 -7 -9 -4 -21z"/>
<path d="M1896 689 c-21 -16 -26 -28 -24 -53 3 -26 8 -32 32 -34 16 -2 33 1
39 7 8 8 2 11 -21 11 -39 0 -44 24 -6 27 35 2 52 19 38 40 -16 25 -28 26 -58
2z m44 -9 c0 -13 -28 -25 -38 -16 -3 4 0 11 8 16 20 13 30 12 30 0z"/>
<path d="M2007 673 c-14 -51 -17 -75 -11 -85 5 -7 12 2 19 23 8 23 19 35 34
37 22 3 23 1 16 -37 -8 -49 8 -55 21 -9 6 19 17 34 28 36 16 4 18 -1 13 -31
-4 -23 -1 -40 7 -47 11 -8 14 0 14 39 1 28 -3 53 -8 56 -6 4 -31 8 -57 11 -26
3 -52 9 -59 15 -9 7 -14 5 -17 -8z"/>
<path d="M2986 675 c-24 -24 -21 -82 5 -95 16 -9 26 -8 45 5 13 8 24 20 24 25
0 6 -11 3 -25 -6 -36 -24 -51 -7 -20 22 28 26 30 57 4 62 -9 2 -24 -4 -33 -13z
m34 -14 c0 -5 -7 -14 -15 -21 -12 -10 -15 -10 -15 2 0 8 3 18 7 21 9 10 23 9
23 -2z"/>
<path d="M2217 628 c-14 -59 -29 -179 -23 -185 14 -14 21 8 25 75 1 15 7 22
22 22 37 0 59 19 59 51 0 25 -6 33 -35 45 -44 18 -42 18 -48 -8z m58 -38 c0
-18 -6 -26 -22 -28 -18 -3 -23 1 -23 21 0 28 9 39 30 35 9 -2 15 -14 15 -28z"/>
<path d="M2770 635 c0 -8 -6 -12 -12 -10 -30 11 -65 -44 -48 -75 14 -26 36
-26 52 0 12 19 13 19 35 -8 17 -21 22 -23 23 -10 0 9 -4 19 -9 23 -6 3 -13 26
-17 50 -6 42 -24 64 -24 30z m-10 -41 c0 -14 -22 -44 -30 -39 -13 8 0 45 16
45 8 0 14 -3 14 -6z"/>
<path d="M2356 594 c-3 -26 -6 -55 -6 -65 0 -31 18 -21 30 16 6 19 21 42 33
50 11 8 18 18 14 21 -4 4 -16 -1 -27 -11 -20 -18 -20 -17 -20 8 0 44 -17 30
-24 -19z"/>
<path d="M2482 607 c-43 -51 -7 -114 52 -91 27 10 17 24 -13 18 -33 -7 -51 11
-21 21 29 9 50 33 44 50 -7 18 -48 20 -62 2z m34 -22 c-21 -16 -32 -13 -21 4
3 6 14 11 23 11 15 -1 15 -2 -2 -15z"/>
</g>
</svg>
